G04 DipTrace 2.4.0.2*
%INBottomSilk.gbr*%
%MOMM*%
%ADD10C,0.254*%
%ADD32C,0.391*%
%ADD99C,0.157*%
%FSLAX53Y53*%
G04*
G71*
G90*
G75*
G01*
%LNBotSilk*%
%LPD*%
X70901Y85340D2*
D10*
X72499D1*
X70901Y85151D2*
X72499D1*
X70901D2*
Y85749D1*
X72499Y85151D2*
Y85749D1*
X69555Y85607D2*
D99*
X69458Y85655D1*
X69360Y85753D1*
X69312Y85849D1*
Y86044D1*
X69360Y86141D1*
X69458Y86238D1*
X69555Y86287D1*
X69701Y86336D1*
X69944D1*
X70089Y86287D1*
X70187Y86238D1*
X70284Y86141D1*
X70333Y86044D1*
Y85849D1*
X70284Y85753D1*
X70187Y85655D1*
X70089Y85607D1*
X70333Y84807D2*
X69313D1*
X69993Y85293D1*
Y84564D1*
X64192Y93532D2*
D32*
X63100D1*
X62735Y93656D1*
X62612Y93776D1*
X62491Y94018D1*
Y94262D1*
X62612Y94504D1*
X62735Y94627D1*
X63100Y94748D1*
X64192D1*
Y92196D1*
X63342Y93532D2*
X62491Y92196D1*
X61707Y93167D2*
X60250D1*
Y93411D1*
X60370Y93656D1*
X60491Y93776D1*
X60735Y93897D1*
X61100D1*
X61342Y93776D1*
X61586Y93532D1*
X61707Y93167D1*
Y92926D1*
X61586Y92561D1*
X61342Y92319D1*
X61100Y92196D1*
X60735D1*
X60491Y92319D1*
X60250Y92561D1*
X59465Y93897D2*
X58735Y92196D1*
X58008Y93897D1*
X54755Y94259D2*
X54511Y94383D1*
X54146Y94745D1*
Y92196D1*
X53240Y92440D2*
X53361Y92316D1*
X53240Y92196D1*
X53117Y92316D1*
X53240Y92440D1*
X52333Y94259D2*
X52088Y94383D1*
X51723Y94745D1*
Y92196D1*
M02*
