M48
METRIC,0000.00
T01C0.4
T02C0.559
T03C0.711
T04C0.8
T05C0.9
T06C0.92
T07C1.0
T08C1.14
T09C1.57
T10C2.3
T11C3.25
T12C4.0
%
T01
X+002410Y+002710
X+002460Y+002610
X+002300Y+002240
X+002200Y+002260
X+004102Y+002450
X+004230Y+002540
X+004840Y+002655
X+004840Y+002212
X+004640Y+003730
X+005920Y+004600
X+005365Y+005860
X+005365Y+006420
X+004800Y+006995
X+003160Y+005900
X+003100Y+005720
X+002900Y+005080
X+003040Y+004730
X+003110Y+004600
X+002256Y+006093
T02
X+006165Y+006920
X+006165Y+006158
X+001220Y+006352
X+000965Y+006038
X+001220Y+005590
X+000965Y+006800
T03
X+006655Y+006155
X+006655Y+006409
T04
X+001718Y+005248
X+001591Y+005375
X+001718Y+005502
X+002089Y+005892
X+001962Y+006019
X+002089Y+006146
X+001813Y+006528
X+001686Y+006401
X+001559Y+006528
X+001688Y+007025
X+001815Y+007152
X+001688Y+007279
T05
X+002625Y+008355
X+002625Y+008609
X+002210Y+008700
X+002210Y+007690
X+002590Y+007190
X+002590Y+006180
X+000524Y+006055
X+000524Y+005801
X+000270Y+005801
X+000270Y+006055
X+000270Y+006309
X+000270Y+006563
X+000270Y+006817
X+000270Y+007071
X+000270Y+007325
X+000270Y+007579
X+000270Y+007833
X+000270Y+008087
X+000270Y+008341
X+000270Y+008595
X+000524Y+008595
X+000524Y+008341
X+000524Y+008087
X+000524Y+007833
X+000524Y+007579
X+000524Y+007325
X+000524Y+007071
X+000524Y+006817
X+000524Y+006563
X+000524Y+006309
X+000524Y+005547
X+000270Y+005547
X+001495Y+002870
X+001495Y+002616
X+001495Y+002362
X+001495Y+002108
X+001749Y+001981
X+001749Y+002235
X+001749Y+002489
X+001749Y+002743
X+005651Y+002651
X+005651Y+002397
X+005905Y+002524
X+005905Y+002778
X+005905Y+003032
X+005651Y+003159
X+005651Y+002905
X+005905Y+002270
X+004945Y+006270
X+004945Y+007280
X+006657Y+007242
X+006657Y+006988
X+006705Y+008425
X+006705Y+008679
T06
X+005860Y+005090
X+006060Y+005090
X+006060Y+004840
X+005860Y+004840
X+001360Y+004690
X+001360Y+004440
X+001360Y+004240
X+001360Y+003990
T07
X+001685Y+009045G85X+001435Y+009045
X+001090Y+008620G85X+001090Y+008870
X+001710Y+008445G85X+001410Y+008445
X+003329Y+006995
X+003583Y+006995
X+003837Y+006995
X+004345Y+006995
X+004345Y+006487
X+004335Y+006135
X+003827Y+006135
X+003573Y+006135
X+003319Y+006135
X+003329Y+006487
X+003583Y+006487
X+003837Y+006487
X+003827Y+005627
X+003573Y+005627
X+003319Y+005627
X+003324Y+005290
X+003578Y+005290
X+003832Y+005290
X+004340Y+005290
X+004335Y+005627
X+004340Y+004782
X+004345Y+004435
X+003837Y+004435
X+003583Y+004435
X+003329Y+004435
X+003324Y+004782
X+003578Y+004782
X+003832Y+004782
X+003837Y+003927
X+003583Y+003927
X+003329Y+003927
X+003329Y+003570
X+003583Y+003570
X+003837Y+003570
X+004345Y+003570
X+004345Y+003927
X+004345Y+003062
X+004340Y+002720
X+003832Y+002720
X+003578Y+002720
X+003324Y+002720
X+003329Y+003062
X+003583Y+003062
X+003837Y+003062
X+003832Y+002212
X+003578Y+002212
X+003324Y+002212
X+004340Y+002212
T08
X+000830Y+007840
X+000830Y+007586
X+000830Y+007332
X+000830Y+007078
X+001084Y+007078
X+001084Y+007332
X+001084Y+007586
X+001084Y+007840
X+005395Y+007895
X+005649Y+007895
T09
X+006845Y+001940
X+006845Y+003489
X+000555Y+003200
X+000555Y+001651
T10
X+006331Y+004363
X+006331Y+005567
X+001089Y+004997
X+001089Y+003683
T11
X+006540Y+002143
X+006540Y+003286
X+000860Y+002997
X+000860Y+001854
T12
X+007041Y+009550
X+000356Y+009550
X+000356Y+000391
X+007040Y+000391
T00
M30
