G04 DipTrace 2.4.0.2*
%INTopMask.gbr*%
%MOMM*%
%ADD36C,1.6*%
%ADD42R,1.8X1.8*%
%ADD43C,1.8*%
%ADD55C,4.0*%
%ADD56C,3.25*%
%ADD64C,1.47*%
%ADD66C,1.95*%
%ADD68R,1.95X1.95*%
%ADD70O,2.2X4.7*%
%ADD72O,5.2X2.2*%
%ADD74O,4.7X2.2*%
%ADD76C,3.7*%
%ADD79C,3.2*%
%ADD81C,2.0*%
%ADD82R,2.0X2.0*%
%ADD83R,1.47X1.47*%
%ADD85C,1.47*%
%ADD87C,1.7*%
%ADD89R,1.7X1.7*%
%ADD93C,1.8*%
%ADD95R,5.75X6.35*%
%ADD97R,1.2X2.95*%
%FSLAX53Y53*%
G04*
G71*
G90*
G75*
G01*
%LNTopMask*%
%LPD*%
D97*
X56500Y84050D3*
X61060D3*
D95*
X58780Y90750D3*
D97*
X44350Y84050D3*
X48910D3*
D95*
X46630Y90750D3*
D42*
X26250Y83550D3*
D93*
Y86090D3*
D42*
X66570Y72420D3*
D93*
Y69880D3*
D42*
X67050Y84250D3*
D93*
Y86790D3*
D89*
X22100Y76900D3*
D87*
Y87000D3*
D85*
X66550Y61550D3*
D83*
Y64090D3*
D89*
X49450Y72800D3*
D87*
Y62700D3*
D89*
X25900Y71900D3*
D87*
Y61800D3*
D55*
X70407Y95500D3*
X70400Y3907D3*
X3560Y3910D3*
X3557Y95503D3*
D82*
X59050Y22700D3*
D81*
X56510Y23970D3*
X59050Y25240D3*
X56510Y26510D3*
X59050Y27780D3*
X56510Y29050D3*
X59050Y30320D3*
X56510Y31590D3*
D79*
X68450Y19400D3*
Y34890D3*
D56*
X65400Y21430D3*
Y32860D3*
D42*
X58600Y50900D3*
D43*
Y48400D3*
X60600D3*
Y50900D3*
D76*
X63310Y43630D3*
Y55670D3*
D42*
X13600Y46900D3*
D87*
Y44400D3*
Y42400D3*
D43*
Y39900D3*
D76*
X10890Y49970D3*
Y36830D3*
D74*
X15600Y90450D3*
D72*
Y84450D3*
D70*
X10900Y87450D3*
D68*
X8300Y78400D3*
D66*
Y75860D3*
Y73320D3*
Y70780D3*
X10840D3*
Y73320D3*
Y75860D3*
Y78400D3*
D68*
X53950Y78950D3*
D66*
X56490D3*
D82*
X14950Y28700D3*
D81*
X17490Y27430D3*
X14950Y26160D3*
X17490Y24890D3*
X14950Y23620D3*
X17490Y22350D3*
X14950Y21080D3*
X17490Y19810D3*
D79*
X5550Y32000D3*
Y16510D3*
D56*
X8600Y29970D3*
Y18540D3*
D89*
X43400Y27200D3*
D87*
X38320D3*
X35780D3*
X33240D3*
Y22120D3*
X35780D3*
X38320D3*
X43400D3*
D89*
X43450Y35700D3*
D87*
X38370D3*
X35830D3*
X33290D3*
Y30620D3*
X35830D3*
X38370D3*
X43450D3*
D89*
Y44350D3*
D87*
X38370D3*
X35830D3*
X33290D3*
Y39270D3*
X35830D3*
X38370D3*
X43450D3*
D89*
X43400Y52900D3*
D87*
X38320D3*
X35780D3*
X33240D3*
Y47820D3*
X35780D3*
X38320D3*
X43400D3*
D89*
X43350Y61350D3*
D87*
X38270D3*
X35730D3*
X33190D3*
Y56270D3*
X35730D3*
X38270D3*
X43350D3*
D89*
X43450Y69950D3*
D87*
X38370D3*
X35830D3*
X33290D3*
Y64870D3*
X35830D3*
X38370D3*
X43450D3*
D36*
X17177Y52483D3*
X15907Y53753D3*
G36*
X16135Y55023D2*
X17177Y56065D1*
X18218Y55023D1*
X17177Y53982D1*
X16135Y55023D1*
G37*
D36*
X16877Y72790D3*
X18147Y71520D3*
G36*
X17918Y70250D2*
X16877Y69209D1*
X15835Y70250D1*
X16877Y71291D1*
X17918Y70250D1*
G37*
D36*
X20893Y58923D3*
X19623Y60193D3*
G36*
X19852Y61463D2*
X20893Y62505D1*
X21935Y61463D1*
X20893Y60422D1*
X19852Y61463D1*
G37*
D36*
X18130Y65277D3*
X16860Y64007D3*
G36*
X15590Y64235D2*
X14549Y65277D1*
X15590Y66318D1*
X16631Y65277D1*
X15590Y64235D1*
G37*
D85*
X61650Y69200D3*
D64*
Y61580D3*
D85*
X12200Y55900D3*
D64*
Y63520D3*
D85*
X9650Y68000D3*
D64*
Y60380D3*
D89*
X2700Y85950D3*
D87*
Y83410D3*
Y80870D3*
Y78330D3*
Y75790D3*
Y73250D3*
Y70710D3*
Y68170D3*
Y65630D3*
Y63090D3*
Y60550D3*
Y58010D3*
Y55470D3*
X5240Y85950D3*
Y83410D3*
Y80870D3*
Y78330D3*
Y75790D3*
Y73250D3*
Y70710D3*
Y68170D3*
Y65630D3*
Y63090D3*
Y60550D3*
Y58010D3*
Y55470D3*
M02*
